<?xml version="1.0" encoding="UTF-8" standalone="no"?>
<svg
   xmlns:dc="http://purl.org/dc/elements/1.1/"
   xmlns:cc="http://creativecommons.org/ns#"
   xmlns:rdf="http://www.w3.org/1999/02/22-rdf-syntax-ns#"
   xmlns:svg="http://www.w3.org/2000/svg"
   xmlns="http://www.w3.org/2000/svg"
   xmlns:sodipodi="http://sodipodi.sourceforge.net/DTD/sodipodi-0.dtd"
   xmlns:inkscape="http://www.inkscape.org/namespaces/inkscape"
   viewBox="564.161 4771.296 810.695 122.988"
   version="1.1"
   id="svg14"
   sodipodi:docname="logo.svg"
   inkscape:version="0.92.3 (2405546, 2018-03-11)">
  <metadata
     id="metadata18">
    <rdf:RDF>
      <cc:Work
         rdf:about="">
        <dc:format>image/svg+xml</dc:format>
        <dc:type
           rdf:resource="http://purl.org/dc/dcmitype/StillImage" />
      </cc:Work>
    </rdf:RDF>
  </metadata>
  <sodipodi:namedview
     pagecolor="#ffffff"
     bordercolor="#666666"
     borderopacity="1"
     objecttolerance="10"
     gridtolerance="10"
     guidetolerance="10"
     inkscape:pageopacity="0"
     inkscape:pageshadow="2"
     inkscape:window-width="1920"
     inkscape:window-height="1017"
     id="namedview16"
     showgrid="false"
     inkscape:zoom="1.4012668"
     inkscape:cx="41.952463"
     inkscape:cy="246.5906"
     inkscape:window-x="-8"
     inkscape:window-y="-8"
     inkscape:window-maximized="1"
     inkscape:current-layer="svg14" />
  <defs
     id="defs4">
    <style
       id="style2">
      .cls-1 {
        <!-- fill: #fc5100; -->




        fill: #fff;
      }
    </style>
  </defs>
  <path
     id="Path_61"
     data-name="Path 61"
     class="cls-1"
     d="m 964.84302,4773.8572 a 51.34943,58.725315 0 0 0 -51.41443,58.7996 51.34943,58.725315 0 0 0 51.41443,58.7997 52.731609,60.30603 0 0 0 25.28622,-7.711 v 4.3375 a 3.3238327,3.8012713 0 0 0 3.37179,3.8561 h 19.80777 a 3.3238327,3.8012713 0 0 0 3.3717,-3.8561 v -55.4262 c -0.422,-32.2919 -23.60148,-58.7996 -51.83748,-58.7996 z m 25.28622,59.2823 a 25.363007,29.006174 0 0 1 -25.28622,28.9184 25.363007,29.006174 0 0 1 -25.28628,-28.9184 25.363007,29.006174 0 0 1 25.28628,-28.9185 25.363007,29.006174 0 0 1 25.28622,28.9185 z"
     inkscape:connector-curvature="0"
     style="fill:#ffffff;stroke-width:1.13964248" />
  <path
     id="Path_62"
     data-name="Path 62"
     class="cls-1"
     d="m 1071.7945,4773.8572 a 51.34943,58.725315 0 0 0 -51.4144,58.7996 v 55.4262 a 3.3238327,3.8012713 0 0 0 3.3717,3.8561 h 19.8078 a 3.3238327,3.8012713 0 0 0 3.3707,-3.8561 v -55.4262 a 25.363007,29.006174 0 0 1 25.2862,-28.9184 25.363007,29.006174 0 0 1 25.2863,28.9184 v 55.4262 a 3.3238327,3.8012713 0 0 0 3.3717,3.8561 h 19.8078 a 3.3238327,3.8012713 0 0 0 3.3718,-3.8561 v -55.4262 a 52.350097,59.869718 0 0 0 -52.2596,-58.7996 z"
     inkscape:connector-curvature="0"
     style="fill:#ffffff;stroke-width:1.13964248" />
  <path
     id="Path_63"
     data-name="Path 63"
     class="cls-1"
     d="m 1129.3976,4776.0221 0,112.0609 c -0.028,2.1425 1.4984,3.8874 3.3717,3.8561 h 19.8076 c 1.8734,0.032 3.3991,-1.7136 3.3719,-3.8561 l -0.064,-112.0856 c 0.1332,-1.3802 -1.9846,-2.4369 -3.6177,-1.9877 l -19.449,-0.1341 c -1.8976,0.3159 -2.5337,0.8212 -3.4219,2.1465 z"
     inkscape:connector-curvature="0"
     style="fill:#ffffff;stroke-width:1.13964248"
     sodipodi:nodetypes="ccccccccc" />
  <path
     id="Path_61-4"
     data-name="Path 61"
     class="cls-1"
     d="m 859.22435,4773.8572 a 51.34943,58.725315 0 0 1 51.41442,58.7996 51.34943,58.725315 0 0 1 -51.41442,58.7997 52.731609,60.30603 0 0 1 -25.28628,-7.711 v 4.3375 a 3.3238327,3.8012713 0 0 1 -3.37179,3.8561 h -19.80766 a 3.3238327,3.8012713 0 0 1 -3.37178,-3.8561 v -55.4262 c 0.422,-32.2919 23.60145,-58.7996 51.83751,-58.7996 z m -25.28628,59.2823 a 25.363007,29.006174 0 0 0 25.28628,28.9184 25.363007,29.006174 0 0 0 25.28627,-28.9184 25.363007,29.006174 0 0 0 -25.28627,-28.9185 25.363007,29.006174 0 0 0 -25.28628,28.9185 z"
     inkscape:connector-curvature="0"
     style="fill:#ffffff;stroke-width:1.13964248" />
  <path
     id="Path_61-31-8"
     data-name="Path 61"
     class="cls-1"
     d="m 1318.8914,4773.8572 a 51.34943,58.725315 0 0 0 -51.4144,58.7996 51.34943,58.725315 0 0 0 51.4144,58.7997 52.731609,60.30603 0 0 0 25.2863,-7.711 v 4.3375 a 3.3238327,3.8012713 0 0 0 3.3718,3.8561 h 19.8077 a 3.3238327,3.8012713 0 0 0 3.3717,-3.8561 v -55.4262 c -0.422,-32.2919 -23.6014,-58.7996 -51.8375,-58.7996 z m 25.2863,59.2823 a 25.363007,29.006174 0 0 1 -25.2863,28.9184 25.363007,29.006174 0 0 1 -25.2862,-28.9184 25.363007,29.006174 0 0 1 25.2862,-28.9185 25.363007,29.006174 0 0 1 25.2863,28.9185 z"
     inkscape:connector-curvature="0"
     style="fill:#ffffff;stroke-width:1.13964248" />
  <path
     id="Path_61-4-0"
     data-name="Path 61"
     class="cls-1"
     d="m 1212.0718,4892.4218 a 51.34943,58.725315 0 0 1 -51.4144,-58.7996 51.34943,58.725315 0 0 1 51.4144,-58.7998 52.731609,60.30603 0 0 1 25.2863,7.711 v -4.3374 a 3.3238327,3.8012713 0 0 1 3.3718,-3.8561 h 19.8077 a 3.3238327,3.8012713 0 0 1 3.3717,3.8561 v 55.4262 c -0.422,32.2919 -23.6014,58.7996 -51.8375,58.7996 z m 25.2863,-59.2823 a 25.363007,29.006174 0 0 0 -25.2863,-28.9184 25.363007,29.006174 0 0 0 -25.2862,28.9184 25.363007,29.006174 0 0 0 25.2862,28.9185 25.363007,29.006174 0 0 0 25.2863,-28.9185 z"
     inkscape:connector-curvature="0"
     style="fill:#ffffff;stroke-width:1.13964248" />
  <g
     id="g855"
     transform="translate(20,-4)">
    <path
       sodipodi:nodetypes="ccccccccccccccc"
       style="fill:#ffffff;stroke-width:1.13964248"
       inkscape:connector-curvature="0"
       d="m 732.62898,4783.0097 c 26.47038,10.3183 38.32001,43.2535 26.44251,73.4958 -11.81036,30.2688 -42.87044,46.4066 -69.31092,36.012 -8.21525,-3.3235 -15.34685,-8.9626 -20.73549,-16.3981 l -1.58112,4.0389 c -0.75566,2.0049 -2.81235,3.0735 -4.54544,2.3617 -7.18719,-2.8242 -14.38756,-5.6151 -21.56815,-8.456 7.17193,-18.409 14.39193,-36.7993 21.59381,-55.1967 12.16431,-29.9161 43.41168,-46.1502 69.70486,-35.8574 z m -45.15651,45.9857 c -5.77546,14.869 0.0343,31.0168 13.00478,36.1462 13.00551,5.0397 28.23406,-2.8727 34.08797,-17.711 5.77546,-14.869 -0.0343,-31.0171 -13.00472,-36.1462 -13.00553,-5.0397 -28.23415,2.8727 -34.08803,17.711 z"
       class="cls-1"
       data-name="Path 61"
       id="Path_61-4-06" />
    <path
       sodipodi:nodetypes="ccccccccccccccc"
       style="fill:#ffffff;stroke-width:1.13964248"
       inkscape:connector-curvature="0"
       d="m 577.06985,4892.8095 c -26.58503,-10.019 -38.80534,-42.8184 -27.26962,-73.1928 11.46825,-30.3999 42.3444,-46.8871 68.90038,-36.7912 8.25238,3.2302 15.447,8.7889 20.91919,16.163 l 1.53534,-4.0564 c 0.73304,-2.0133 2.77748,-3.105 4.51854,-2.4127 7.21862,2.7428 14.44996,5.4524 21.6621,8.2123 -6.96383,18.4887 -13.97601,36.9592 -20.96997,55.4365 -11.82617,30.0515 -42.88847,46.6371 -69.29604,36.6412 z m 44.63507,-46.4917 c 5.60741,-14.9332 -0.38411,-31.0147 -13.41156,-35.9973 -13.06152,-4.8927 -28.19987,3.1909 -33.88607,18.0942 -5.60747,14.9332 0.38401,31.0147 13.4115,35.9973 13.06156,4.8927 28.19997,-3.191 33.88613,-18.0942 z"
       class="cls-1"
       data-name="Path 61"
       id="Path_61-4-06-7" />
  </g>
</svg>
