<?xml version="1.0" encoding="UTF-8" standalone="no"?>
<!-- Generator: Adobe Illustrator 22.0.1, SVG Export Plug-In . SVG Version: 6.00 Build 0)  -->

<svg
   xmlns:dc="http://purl.org/dc/elements/1.1/"
   xmlns:cc="http://creativecommons.org/ns#"
   xmlns:rdf="http://www.w3.org/1999/02/22-rdf-syntax-ns#"
   xmlns:svg="http://www.w3.org/2000/svg"
   xmlns="http://www.w3.org/2000/svg"
   xmlns:sodipodi="http://sodipodi.sourceforge.net/DTD/sodipodi-0.dtd"
   xmlns:inkscape="http://www.inkscape.org/namespaces/inkscape"
   version="1.1"
   id="Layer_1"
   x="0px"
   y="0px"
   viewBox="0 0 723 723"
   style="enable-background:new 0 0 723 723;"
   xml:space="preserve"
   sodipodi:docname="3dr.svg"
   inkscape:version="0.92.3 (2405546, 2018-03-11)"><metadata
   id="metadata87"><rdf:RDF><cc:Work
       rdf:about=""><dc:format>image/svg+xml</dc:format><dc:type
         rdf:resource="http://purl.org/dc/dcmitype/StillImage" /></cc:Work></rdf:RDF></metadata><defs
   id="defs85">
	
	
	
	
	
	
	
	
	
	
	
	
	
	
	
</defs><sodipodi:namedview
   pagecolor="#ffffff"
   bordercolor="#666666"
   borderopacity="1"
   objecttolerance="10"
   gridtolerance="10"
   guidetolerance="10"
   inkscape:pageopacity="0"
   inkscape:pageshadow="2"
   inkscape:window-width="1920"
   inkscape:window-height="1017"
   id="namedview83"
   showgrid="false"
   inkscape:zoom="0.92324868"
   inkscape:cx="-72.829297"
   inkscape:cy="361.32368"
   inkscape:window-x="-8"
   inkscape:window-y="-8"
   inkscape:window-maximized="1"
   inkscape:current-layer="Layer_1" />
<style
   type="text/css"
   id="style2">
	.st0{fill:#FC5100;}
	.st1{enable-background:new    ;}
	.st2{fill:#FFFFFF;}
	.st3{fill:none;stroke:#FFFFFF;stroke-width:6;}
	.blink-arrow1 {
		animation: fadeIn1 2.5s ease infinite;
	}
  .blink-arrow2 {
		animation: fadeIn2 2.5s ease infinite;
	}
	.blink-arrow3 {
		animation: fadeIn3 2.5s ease infinite;
	}
	.blink-arrow4 {
		animation: fadeIn4 2.5s ease infinite;
	}
	@keyframes fadeIn1 {
    0%  {
      opacity: 0;
      transform: translateX(-20px);
    }
    10% {
    	opacity: 0;
    }
    50% {
      opacity: 1;
    }
    90% {
			opcity: 0;
    }
    100% {
      opacity: 0;
    }
  }
	@keyframes fadeIn2 {
    0%  {
      opacity: 0;
      transform: translateY(-20px);
    }
    10% {
    	opacity: 0;
    }
    50% {
      opacity: 1;
    }
    90% {
			opcity: 0;
    }
    100% {
      opacity: 0;
    }
  }
  @keyframes fadeIn3 {
    0%  {
      opacity: 0;
      transform: translateY(20px);
    }
    10% {
    	opacity: 0;
    }
    50% {
      opacity: 1;
    }
    90% {
			opcity: 0;
    }
    100% {
      opacity: 0;
    }
  }
  @keyframes fadeIn4 {
    0%  {
      opacity: 0;
      transform: translateX(20px);
    }
    10% {
    	opacity: 0;
    }
    50% {
      opacity: 1;
    }
    90% {
			opcity: 0;
    }
    100% {
      opacity: 0;
    }
  }
</style>
<circle
   style="fill:#124066;fill-opacity:1"
   r="361.5"
   cy="361.5"
   cx="361.5"
   class="st0"
   id="Ellipse_24" /><g
   id="g14">
		<circle
   style="fill:#ffffff"
   r="55.5"
   cy="106.5"
   cx="105.5"
   class="st2"
   id="Ellipse_26-5" />
	</g><g
   style="enable-background:new"
   id="g20"
   class="st1"
   transform="translate(-599,-155)">
		<path
   inkscape:connector-curvature="0"
   id="path16"
   d="m 691.3,266.3 v -7.5 c 0,-3.8 3.1,-6.9 6.9,-6.9 3.8,0 6.9,3.1 6.9,6.9 v 7.5 c 0,3.9 -3.1,7 -6.9,7 -3.8,0 -6.9,-3.1 -6.9,-7 z m 8.8,0 v -7.5 c 0,-1 -0.8,-1.9 -1.9,-1.9 -1,0 -1.9,0.8 -1.9,1.9 v 7.5 c 0,1 0.8,1.9 1.9,1.9 1,0 1.9,-0.8 1.9,-1.9 z" />
		<path
   inkscape:connector-curvature="0"
   id="path18"
   d="M 718.7,254.3 V 273 h -5.1 v -14 l -2.7,1.6 -2.3,-4.6 6.4,-3.7 c 0.5,-0.3 0.8,-0.4 1.3,-0.4 1.4,0 2.4,1 2.4,2.4 z" />
	</g><g
   id="g23">
		<circle
   style="fill:#ffffff"
   r="55.5"
   cy="106.5"
   cx="626.5"
   class="st2"
   id="Ellipse_26-6" />
	</g><g
   style="enable-background:new"
   id="g29"
   class="st1"
   transform="translate(-599,-155)">
		<path
   inkscape:connector-curvature="0"
   id="path25"
   d="m 1209.9,266.3 v -7.5 c 0,-3.8 3.1,-6.9 6.9,-6.9 3.8,0 6.9,3.1 6.9,6.9 v 7.5 c 0,3.9 -3.1,7 -6.9,7 -3.8,0 -6.9,-3.1 -6.9,-7 z m 8.9,0 v -7.5 c 0,-1 -0.8,-1.9 -1.9,-1.9 -1,0 -1.9,0.8 -1.9,1.9 v 7.5 c 0,1 0.8,1.9 1.9,1.9 1,0 1.9,-0.8 1.9,-1.9 z" />
		<path
   inkscape:connector-curvature="0"
   id="path27"
   d="m 1237,267.9 h 5.6 v 5.1 h -11.4 c -1.3,0 -2.4,-1.1 -2.4,-2.4 0,-0.6 0.3,-1.2 0.6,-1.6 l 7.5,-8.6 c 0.4,-0.5 0.6,-0.9 0.6,-1.4 0.1,-1 -0.8,-2 -1.9,-2 -0.3,0 -0.6,0.1 -0.8,0.2 l -4.6,2.3 -2.3,-4.5 4.5,-2.3 c 1,-0.5 2,-0.8 3.2,-0.8 3.9,0 7.1,3.2 7.1,7.1 0,1.9 -0.8,3.5 -2.1,5 z" />
	</g><g
   id="g32">
		<circle
   style="fill:#ffffff"
   r="55.5"
   cy="625.5"
   cx="626.5"
   class="st2"
   id="Ellipse_26-7" />
	</g><g
   style="enable-background:new"
   id="g38"
   class="st1"
   transform="translate(-599,-155)">
		<path
   inkscape:connector-curvature="0"
   id="path34"
   d="m 1209.7,785.3 v -7.5 c 0,-3.8 3.1,-6.9 6.9,-6.9 3.8,0 6.9,3.1 6.9,6.9 v 7.5 c 0,3.9 -3.1,7 -6.9,7 -3.8,0 -6.9,-3.1 -6.9,-7 z m 8.8,0 v -7.5 c 0,-1 -0.8,-1.9 -1.9,-1.9 -1,0 -1.9,0.8 -1.9,1.9 v 7.5 c 0,1 0.8,1.9 1.9,1.9 1.1,0 1.9,-0.8 1.9,-1.9 z" />
		<path
   inkscape:connector-curvature="0"
   id="path36"
   d="m 1242.9,785.6 c 0,3.5 -2.8,6.4 -6.4,6.4 h -7.5 v -5.1 h 7.5 c 0.7,0 1.3,-0.6 1.3,-1.3 0,-0.8 -0.6,-1.4 -1.3,-1.4 h -3.7 c -1.3,0 -2.4,-1.1 -2.4,-2.4 0,-0.6 0.2,-1.2 0.6,-1.6 l 3.4,-4 h -5.7 v -5.1 h 11.5 c 1.3,0 2.4,1.1 2.4,2.4 0,0.6 -0.3,1.2 -0.6,1.7 l -3.7,4.2 c 2.6,0.8 4.6,3.3 4.6,6.2 z" />
	</g><g
   id="g41">
		<circle
   style="fill:#ffffff"
   r="55.5"
   cy="625.5"
   cx="105.5"
   class="st2"
   id="Ellipse_26-8" />
	</g><g
   style="enable-background:new"
   id="g47"
   class="st1"
   transform="translate(-599,-155)">
		<path
   inkscape:connector-curvature="0"
   id="path43"
   d="m 689.4,785.3 v -7.5 c 0,-3.8 3.1,-6.9 6.9,-6.9 3.8,0 6.9,3.1 6.9,6.9 v 7.5 c 0,3.9 -3.1,7 -6.9,7 -3.8,0 -6.9,-3.1 -6.9,-7 z m 8.8,0 v -7.5 c 0,-1 -0.8,-1.9 -1.9,-1.9 -1,0 -1.9,0.8 -1.9,1.9 v 7.5 c 0,1 0.8,1.9 1.9,1.9 1,0 1.9,-0.8 1.9,-1.9 z" />
		<path
   inkscape:connector-curvature="0"
   id="path45"
   d="m 721.2,786.7 h -2 v 5.3 h -5.1 v -5.3 H 708 c -1.3,0 -2.4,-1.1 -2.4,-2.4 0,-0.3 0.1,-0.6 0.2,-0.9 l 3.4,-7.5 h 5 v -4.8 h 5.1 v 10.6 h 2 v 5 z m -7.1,-4.9 V 777 l -2.1,4.7 h 2.1 z" />
	</g><g
   id="g70">
		<path
   style="fill:none;stroke:#ffffff;stroke-width:6"
   inkscape:connector-curvature="0"
   d="m 367.2,78.9 1,1 -1,-1 -13.9,13.9 13.9,-13.9 -13.9,-13.9 13.9,13.9 1,-1 z"
   class="st3 blink-arrow1"
   id="Union_1-2" />
	</g><g
   id="g73">
		<path
   style="fill:none;stroke:#ffffff;stroke-width:6"
   inkscape:connector-curvature="0"
   d="m 643.8,367.4 -1,1 1,-1 -13.9,-13.9 13.9,13.9 13.9,-13.9 -13.9,13.9 1,1 z"
   class="st3 blink-arrow2"
   id="Union_3-2" />
	</g><g
   id="g76">
		<path
   style="fill:none;stroke:#ffffff;stroke-width:6"
   inkscape:connector-curvature="0"
   d="m 77.8,354.5 1,-1 -1,1 13.9,13.9 -13.9,-13.9 -13.9,13.9 13.9,-13.9 -1,-1 z"
   class="st3 blink-arrow3"
   id="Union_4-2" />
	</g><g
   id="g79">
		<path
   style="fill:none;stroke:#ffffff;stroke-width:6"
   inkscape:connector-curvature="0"
   d="m 354.3,643 -1,-1 1,1 13.9,-13.9 -13.9,13.9 13.9,13.9 -13.9,-13.9 -1,1 z"
   class="st3 blink-arrow4"
   id="Union_2-2" />
	</g>
<text
   xml:space="preserve"
   style="font-style:normal;font-weight:normal;font-size:40px;line-height:1.25;font-family:sans-serif;letter-spacing:0px;word-spacing:0px;fill:#000000;fill-opacity:1;stroke:none"
   x="187.64301"
   y="291.80405"
   id="text860"><tspan
     sodipodi:role="line"
     id="tspan858"
     x="187.64301"
     y="291.80405"
     style="font-style:normal;font-variant:normal;font-weight:normal;font-stretch:normal;font-family:Calibri;-inkscape-font-specification:Calibri;fill:#ffffff">CARA KAMI BEKERJA</tspan></text>


<text
   xml:space="preserve"
   style="font-style:normal;font-weight:normal;font-size:35.63673782px;line-height:1.25;font-family:sans-serif;letter-spacing:0px;word-spacing:0px;fill:#000000;fill-opacity:1;stroke:none;stroke-width:0.89091837"
   x="181.74181"
   y="422.40604"
   id="text864"
   transform="scale(0.95402224,1.0481936)"><tspan
     sodipodi:role="line"
     id="tspan862"
     x="181.74181"
     y="422.40604"
     style="font-style:normal;font-variant:normal;font-weight:bold;font-stretch:normal;font-size:171.05632019px;font-family:Calibri;-inkscape-font-specification:'Calibri Bold';fill:#ffffff;stroke-width:0.89091837">PDCA</tspan></text>


</svg>